<svg xmlns="http://www.w3.org/2000/svg" xmlns:xlink="http://www.w3.org/1999/xlink" version="1.1" class="marks" width="543" height="364" viewBox="0 0 543 364"><rect width="543" height="364" fill="white"/><g fill="none" stroke-miterlimit="10" transform="translate(37,27)"><g class="mark-group role-frame root" role="graphics-object" aria-roledescription="group mark container"><g transform="translate(0,0)"><path class="background" aria-hidden="true" d="M0.5,0.5h500v300h-500Z" stroke="#ddd"/><g><g class="mark-group role-axis" aria-hidden="true"><g transform="translate(0.5,300.5)"><path class="background" aria-hidden="true" d="M0,0h0v0h0Z" pointer-events="none"/><g><g class="mark-rule role-axis-grid" pointer-events="none"><line transform="translate(0,-300)" x2="0" y2="300" stroke="#ddd" stroke-width="1" opacity="1"/><line transform="translate(45,-300)" x2="0" y2="300" stroke="#ddd" stroke-width="1" opacity="1"/><line transform="translate(91,-300)" x2="0" y2="300" stroke="#ddd" stroke-width="1" opacity="1"/><line transform="translate(136,-300)" x2="0" y2="300" stroke="#ddd" stroke-width="1" opacity="1"/><line transform="translate(182,-300)" x2="0" y2="300" stroke="#ddd" stroke-width="1" opacity="1"/><line transform="translate(227,-300)" x2="0" y2="300" stroke="#ddd" stroke-width="1" opacity="1"/><line transform="translate(273,-300)" x2="0" y2="300" stroke="#ddd" stroke-width="1" opacity="1"/><line transform="translate(318,-300)" x2="0" y2="300" stroke="#ddd" stroke-width="1" opacity="1"/><line transform="translate(364,-300)" x2="0" y2="300" stroke="#ddd" stroke-width="1" opacity="1"/><line transform="translate(409,-300)" x2="0" y2="300" stroke="#ddd" stroke-width="1" opacity="1"/><line transform="translate(455,-300)" x2="0" y2="300" stroke="#ddd" stroke-width="1" opacity="1"/><line transform="translate(500,-300)" x2="0" y2="300" stroke="#ddd" stroke-width="1" opacity="1"/></g></g><path class="foreground" aria-hidden="true" d="" pointer-events="none" display="none"/></g></g><g class="mark-group role-axis" aria-hidden="true"><g transform="translate(0.5,0.5)"><path class="background" aria-hidden="true" d="M0,0h0v0h0Z" pointer-events="none"/><g><g class="mark-rule role-axis-grid" pointer-events="none"><line transform="translate(0,300)" x2="500" y2="0" stroke="#ddd" stroke-width="1" opacity="1"/><line transform="translate(0,267)" x2="500" y2="0" stroke="#ddd" stroke-width="1" opacity="1"/><line transform="translate(0,233)" x2="500" y2="0" stroke="#ddd" stroke-width="1" opacity="1"/><line transform="translate(0,200)" x2="500" y2="0" stroke="#ddd" stroke-width="1" opacity="1"/><line transform="translate(0,167)" x2="500" y2="0" stroke="#ddd" stroke-width="1" opacity="1"/><line transform="translate(0,133)" x2="500" y2="0" stroke="#ddd" stroke-width="1" opacity="1"/><line transform="translate(0,100)" x2="500" y2="0" stroke="#ddd" stroke-width="1" opacity="1"/><line transform="translate(0,67)" x2="500" y2="0" stroke="#ddd" stroke-width="1" opacity="1"/><line transform="translate(0,33)" x2="500" y2="0" stroke="#ddd" stroke-width="1" opacity="1"/><line transform="translate(0,0)" x2="500" y2="0" stroke="#ddd" stroke-width="1" opacity="1"/></g></g><path class="foreground" aria-hidden="true" d="" pointer-events="none" display="none"/></g></g><g class="mark-group role-axis" role="graphics-symbol" aria-roledescription="axis" aria-label="X-axis titled 'Year name given' for a linear scale with values from 1910 to 2020"><g transform="translate(0.5,300.5)"><path class="background" aria-hidden="true" d="M0,0h0v0h0Z" pointer-events="none"/><g><g class="mark-rule role-axis-tick" pointer-events="none"><line transform="translate(0,0)" x2="0" y2="5" stroke="#888" stroke-width="1" opacity="1"/><line transform="translate(45,0)" x2="0" y2="5" stroke="#888" stroke-width="1" opacity="1"/><line transform="translate(91,0)" x2="0" y2="5" stroke="#888" stroke-width="1" opacity="1"/><line transform="translate(136,0)" x2="0" y2="5" stroke="#888" stroke-width="1" opacity="1"/><line transform="translate(182,0)" x2="0" y2="5" stroke="#888" stroke-width="1" opacity="1"/><line transform="translate(227,0)" x2="0" y2="5" stroke="#888" stroke-width="1" opacity="1"/><line transform="translate(273,0)" x2="0" y2="5" stroke="#888" stroke-width="1" opacity="1"/><line transform="translate(318,0)" x2="0" y2="5" stroke="#888" stroke-width="1" opacity="1"/><line transform="translate(364,0)" x2="0" y2="5" stroke="#888" stroke-width="1" opacity="1"/><line transform="translate(409,0)" x2="0" y2="5" stroke="#888" stroke-width="1" opacity="1"/><line transform="translate(455,0)" x2="0" y2="5" stroke="#888" stroke-width="1" opacity="1"/><line transform="translate(500,0)" x2="0" y2="5" stroke="#888" stroke-width="1" opacity="1"/></g><g class="mark-text role-axis-label" pointer-events="none"><text text-anchor="start" transform="translate(0,15)" font-family="sans-serif" font-size="10px" fill="#000" opacity="1">1910</text><text text-anchor="middle" transform="translate(45.45454545454545,15)" font-family="sans-serif" font-size="10px" fill="#000" opacity="1">1920</text><text text-anchor="middle" transform="translate(90.9090909090909,15)" font-family="sans-serif" font-size="10px" fill="#000" opacity="1">1930</text><text text-anchor="middle" transform="translate(136.36363636363635,15)" font-family="sans-serif" font-size="10px" fill="#000" opacity="1">1940</text><text text-anchor="middle" transform="translate(181.8181818181818,15)" font-family="sans-serif" font-size="10px" fill="#000" opacity="1">1950</text><text text-anchor="middle" transform="translate(227.27272727272725,15)" font-family="sans-serif" font-size="10px" fill="#000" opacity="1">1960</text><text text-anchor="middle" transform="translate(272.7272727272727,15)" font-family="sans-serif" font-size="10px" fill="#000" opacity="1">1970</text><text text-anchor="middle" transform="translate(318.1818181818182,15)" font-family="sans-serif" font-size="10px" fill="#000" opacity="1">1980</text><text text-anchor="middle" transform="translate(363.6363636363636,15)" font-family="sans-serif" font-size="10px" fill="#000" opacity="1">1990</text><text text-anchor="middle" transform="translate(409.0909090909091,15)" font-family="sans-serif" font-size="10px" fill="#000" opacity="1">2000</text><text text-anchor="middle" transform="translate(454.5454545454545,15)" font-family="sans-serif" font-size="10px" fill="#000" opacity="1">2010</text><text text-anchor="end" transform="translate(500,15)" font-family="sans-serif" font-size="10px" fill="#000" opacity="1">2020</text></g><g class="mark-rule role-axis-domain" pointer-events="none"><line transform="translate(0,0)" x2="500" y2="0" stroke="#888" stroke-width="1" opacity="1"/></g><g class="mark-text role-axis-title" pointer-events="none"><text text-anchor="middle" transform="translate(250,30)" font-family="sans-serif" font-size="11px" font-weight="bold" fill="#000" opacity="1">Year name given</text></g></g><path class="foreground" aria-hidden="true" d="" pointer-events="none" display="none"/></g></g><g class="mark-group role-axis" role="graphics-symbol" aria-roledescription="axis" aria-label="Y-axis titled 'Count of Peter' for a linear scale with values from 0 to 90"><g transform="translate(0.5,0.5)"><path class="background" aria-hidden="true" d="M0,0h0v0h0Z" pointer-events="none"/><g><g class="mark-rule role-axis-tick" pointer-events="none"><line transform="translate(0,300)" x2="-5" y2="0" stroke="#888" stroke-width="1" opacity="1"/><line transform="translate(0,267)" x2="-5" y2="0" stroke="#888" stroke-width="1" opacity="1"/><line transform="translate(0,233)" x2="-5" y2="0" stroke="#888" stroke-width="1" opacity="1"/><line transform="translate(0,200)" x2="-5" y2="0" stroke="#888" stroke-width="1" opacity="1"/><line transform="translate(0,167)" x2="-5" y2="0" stroke="#888" stroke-width="1" opacity="1"/><line transform="translate(0,133)" x2="-5" y2="0" stroke="#888" stroke-width="1" opacity="1"/><line transform="translate(0,100)" x2="-5" y2="0" stroke="#888" stroke-width="1" opacity="1"/><line transform="translate(0,67)" x2="-5" y2="0" stroke="#888" stroke-width="1" opacity="1"/><line transform="translate(0,33)" x2="-5" y2="0" stroke="#888" stroke-width="1" opacity="1"/><line transform="translate(0,0)" x2="-5" y2="0" stroke="#888" stroke-width="1" opacity="1"/></g><g class="mark-text role-axis-label" pointer-events="none"><text text-anchor="end" transform="translate(-7,303)" font-family="sans-serif" font-size="10px" fill="#000" opacity="1">0</text><text text-anchor="end" transform="translate(-7,269.66666666666663)" font-family="sans-serif" font-size="10px" fill="#000" opacity="1">10</text><text text-anchor="end" transform="translate(-7,236.33333333333334)" font-family="sans-serif" font-size="10px" fill="#000" opacity="1">20</text><text text-anchor="end" transform="translate(-7,203.00000000000003)" font-family="sans-serif" font-size="10px" fill="#000" opacity="1">30</text><text text-anchor="end" transform="translate(-7,169.66666666666669)" font-family="sans-serif" font-size="10px" fill="#000" opacity="1">40</text><text text-anchor="end" transform="translate(-7,136.33333333333331)" font-family="sans-serif" font-size="10px" fill="#000" opacity="1">50</text><text text-anchor="end" transform="translate(-7,103.00000000000001)" font-family="sans-serif" font-size="10px" fill="#000" opacity="1">60</text><text text-anchor="end" transform="translate(-7,69.66666666666666)" font-family="sans-serif" font-size="10px" fill="#000" opacity="1">70</text><text text-anchor="end" transform="translate(-7,36.33333333333335)" font-family="sans-serif" font-size="10px" fill="#000" opacity="1">80</text><text text-anchor="end" transform="translate(-7,3)" font-family="sans-serif" font-size="10px" fill="#000" opacity="1">90</text></g><g class="mark-rule role-axis-domain" pointer-events="none"><line transform="translate(0,300)" x2="0" y2="-300" stroke="#888" stroke-width="1" opacity="1"/></g><g class="mark-text role-axis-title" pointer-events="none"><text text-anchor="middle" transform="translate(-21,150) rotate(-90) translate(0,-2)" font-family="sans-serif" font-size="11px" font-weight="bold" fill="#000" opacity="1">Count of Peter</text></g></g><path class="foreground" aria-hidden="true" d="" pointer-events="none" display="none"/></g></g><g class="mark-line role-mark layer_0_marks" role="graphics-object" aria-roledescription="line mark container"><path aria-label="Year name given: 1913; Count of Peter: 7" role="graphics-symbol" aria-roledescription="line mark" d="M13.636363636363635,276.6666666666667L18.18181818181818,266.66666666666663L22.727272727272727,256.6666666666667L27.27272727272727,273.3333333333333L31.818181818181817,256.6666666666667L36.36363636363636,280L40.90909090909091,256.6666666666667L45.45454545454545,280L50,253.33333333333334L54.54545454545454,266.66666666666663L59.090909090909086,276.6666666666667L63.63636363636363,253.33333333333334L68.18181818181817,243.33333333333334L72.72727272727272,273.3333333333333L77.27272727272727,243.33333333333334L81.81818181818181,246.66666666666666L86.36363636363636,250L90.9090909090909,263.3333333333333L95.45454545454545,263.3333333333333L100,240L104.54545454545453,243.33333333333334L109.09090909090908,243.33333333333334L113.63636363636363,233.33333333333334L118.18181818181817,240L122.72727272727272,213.33333333333334L127.27272727272727,220.00000000000003L131.8181818181818,226.66666666666666L136.36363636363635,216.66666666666666L140.9090909090909,196.66666666666666L145.45454545454544,183.33333333333334L150,203.33333333333334L154.54545454545453,206.66666666666666L159.0909090909091,180L163.63636363636363,146.66666666666669L168.1818181818182,113.33333333333333L172.72727272727272,156.66666666666663L177.27272727272728,173.33333333333331L181.8181818181818,86.66666666666666L186.36363636363637,186.66666666666666L190.9090909090909,146.66666666666669L195.45454545454547,80.00000000000001L200,69.99999999999999L204.54545454545456,90.00000000000001L209.09090909090907,16.666666666666675L213.63636363636363,96.66666666666666L218.18181818181816,110.00000000000001L222.72727272727272,93.33333333333333L227.27272727272725,116.66666666666666L231.8181818181818,120L236.36363636363635,113.33333333333333L240.9090909090909,120L245.45454545454544,90.00000000000001L250,80.00000000000001L254.54545454545453,80.00000000000001L259.0909090909091,90.00000000000001L263.6363636363636,46.666666666666664L268.1818181818182,93.33333333333333L272.7272727272727,66.66666666666666L277.2727272727273,123.33333333333333L281.8181818181818,90.00000000000001L286.3636363636364,69.99999999999999L290.9090909090909,56.666666666666664L295.4545454545455,100.00000000000001L300,29.999999999999993L304.54545454545456,56.666666666666664L309.09090909090907,39.99999999999999L313.6363636363637,16.666666666666675L318.1818181818182,16.666666666666675L322.72727272727275,43.33333333333334L327.27272727272725,29.999999999999993L331.81818181818187,73.33333333333334L336.3636363636364,49.999999999999986L340.9090909090909,73.33333333333334L345.45454545454544,80.00000000000001L350,96.66666666666666L354.54545454545456,103.33333333333333L359.09090909090907,66.66666666666666L363.6363636363636,106.66666666666666L368.1818181818182,96.66666666666666L372.72727272727275,66.66666666666666L377.27272727272725,116.66666666666666L381.8181818181818,120L386.3636363636364,140L390.90909090909093,170L395.45454545454544,173.33333333333331L400,163.33333333333334L404.54545454545456,160L409.0909090909091,183.33333333333334L413.6363636363636,170L418.18181818181813,160L422.72727272727275,176.66666666666669L427.27272727272725,203.33333333333334L431.8181818181818,196.66666666666666L436.3636363636363,180L440.90909090909093,200.00000000000003L445.45454545454544,200.00000000000003L450,200.00000000000003L454.5454545454545,226.66666666666666L459.0909090909091,166.66666666666669L463.6363636363636,196.66666666666666L468.1818181818182,193.33333333333331L472.7272727272727,180L477.2727272727273,229.99999999999997" stroke="#ffa500" stroke-width="2"/></g><g class="mark-line role-mark layer_1_marks" role="graphics-object" aria-roledescription="line mark container"><path aria-label="Year name given: 1913; Count of Peter: 6" role="graphics-symbol" aria-roledescription="line mark" d="M13.636363636363635,280L22.727272727272727,276.6666666666667L27.27272727272727,263.3333333333333L31.818181818181817,263.3333333333333L36.36363636363636,276.6666666666667L40.90909090909091,256.6666666666667L45.45454545454545,276.6666666666667L50,273.3333333333333L54.54545454545454,273.3333333333333L59.090909090909086,283.3333333333333L63.63636363636363,276.6666666666667L68.18181818181817,283.3333333333333L72.72727272727272,273.3333333333333L77.27272727272727,280L81.81818181818181,280L86.36363636363636,280L90.9090909090909,273.3333333333333L95.45454545454545,276.6666666666667L104.54545454545453,276.6666666666667L109.09090909090908,266.66666666666663L113.63636363636363,280L118.18181818181817,273.3333333333333L122.72727272727272,256.6666666666667L127.27272727272727,266.66666666666663L131.8181818181818,266.66666666666663L136.36363636363635,260L140.9090909090909,260L145.45454545454544,283.3333333333333L150,263.3333333333333L154.54545454545453,256.6666666666667L159.0909090909091,243.33333333333334L163.63636363636363,256.6666666666667L168.1818181818182,266.66666666666663L172.72727272727272,253.33333333333334L177.27272727272728,246.66666666666666L181.8181818181818,253.33333333333334L186.36363636363637,233.33333333333334L190.9090909090909,236.66666666666666L195.45454545454547,246.66666666666666L200,246.66666666666666L204.54545454545456,200.00000000000003L209.09090909090907,200.00000000000003L213.63636363636363,193.33333333333331L218.18181818181816,186.66666666666666L222.72727272727272,223.33333333333334L227.27272727272725,220.00000000000003L231.8181818181818,226.66666666666666L236.36363636363635,220.00000000000003L240.9090909090909,190L245.45454545454544,200.00000000000003L250,220.00000000000003L254.54545454545453,206.66666666666666L259.0909090909091,210L263.6363636363636,216.66666666666666L268.1818181818182,233.33333333333334L272.7272727272727,186.66666666666666L277.2727272727273,200.00000000000003L281.8181818181818,220.00000000000003L286.3636363636364,173.33333333333331L290.9090909090909,193.33333333333331L295.4545454545455,183.33333333333334L300,126.66666666666669L304.54545454545456,110.00000000000001L309.09090909090907,83.33333333333334L313.6363636363637,130L318.1818181818182,153.33333333333331L322.72727272727275,110.00000000000001L327.27272727272725,126.66666666666669L331.81818181818187,126.66666666666669L336.3636363636364,183.33333333333334L340.9090909090909,166.66666666666669L345.45454545454544,150L350,183.33333333333334L354.54545454545456,160L359.09090909090907,160L363.6363636363636,206.66666666666666L368.1818181818182,213.33333333333334L372.72727272727275,176.66666666666669L377.27272727272725,170L381.8181818181818,193.33333333333331L386.3636363636364,183.33333333333334L390.90909090909093,210L395.45454545454544,210L400,163.33333333333334L404.54545454545456,213.33333333333334L409.0909090909091,220.00000000000003L413.6363636363636,196.66666666666666L418.18181818181813,200.00000000000003L422.72727272727275,183.33333333333334L427.27272727272725,156.66666666666663L431.8181818181818,173.33333333333331L436.3636363636363,136.66666666666669L440.90909090909093,156.66666666666663L445.45454545454544,110.00000000000001L450,180L454.5454545454545,150L459.0909090909091,163.33333333333334L463.6363636363636,163.33333333333334L468.1818181818182,116.66666666666666L472.7272727272727,113.33333333333333L477.2727272727273,116.66666666666666" stroke="#ff0000" stroke-width="2"/></g><g class="mark-rule role-mark layer_2_marks" role="graphics-object" aria-roledescription="rule mark container"><line aria-label="x: 1936" role="graphics-symbol" aria-roledescription="rule mark" transform="translate(118.18181818181817,0)" x2="0" y2="300" stroke="black"/></g><g class="mark-rule role-mark layer_3_marks" role="graphics-object" aria-roledescription="rule mark container"><line aria-label="x: 1972" role="graphics-symbol" aria-roledescription="rule mark" transform="translate(281.8181818181818,0)" x2="0" y2="300" stroke="black"/></g><g class="mark-rule role-mark layer_4_marks" role="graphics-object" aria-roledescription="rule mark container"><line aria-label="x: 2005" role="graphics-symbol" aria-roledescription="rule mark" transform="translate(431.8181818181818,0)" x2="0" y2="300" stroke="black"/></g><g class="mark-text role-mark layer_5_marks" role="graphics-object" aria-roledescription="text mark container"><text aria-label="x: 1932; y: 40" role="graphics-symbol" aria-roledescription="text mark" text-anchor="middle" transform="translate(100,169.66666666666669)" font-family="sans-serif" font-size="11px" fill="black">1936</text></g><g class="mark-text role-mark layer_6_marks" role="graphics-object" aria-roledescription="text mark container"><text aria-label="x: 1968; y: 85" role="graphics-symbol" aria-roledescription="text mark" text-anchor="middle" transform="translate(263.6363636363636,19.666666666666675)" font-family="sans-serif" font-size="11px" fill="black">1972</text></g><g class="mark-text role-mark layer_7_marks" role="graphics-object" aria-roledescription="text mark container"><text aria-label="x: 2001; y: 60" role="graphics-symbol" aria-roledescription="text mark" text-anchor="middle" transform="translate(413.6363636363636,103.00000000000001)" font-family="sans-serif" font-size="11px" fill="black">2005</text></g><g class="mark-group role-title"><g transform="translate(-32,-22)"><path class="background" aria-hidden="true" d="M0,0h0v0h0Z" pointer-events="none"/><g><g class="mark-text role-title-text" role="graphics-symbol" aria-roledescription="title" aria-label="Title text 'The History of Peter for UT (red) and OR (orange) '" pointer-events="none"><text text-anchor="start" transform="translate(0,10)" font-family="sans-serif" font-size="13px" font-weight="bold" fill="#000" opacity="1">The History of Peter for UT (red) and OR (orange)</text></g></g><path class="foreground" aria-hidden="true" d="" pointer-events="none" display="none"/></g></g></g><path class="foreground" aria-hidden="true" d="" display="none"/></g></g></g></svg>